<svg width="6000" height="6000" viewBox="0 0 6000 6000" fill="none" xmlns="http://www.w3.org/2000/svg">
<g clip-path="url(#clip0_2_2)">
<path d="M6000 0H0V6000H6000V0Z" fill="white"/>
<path fill-rule="evenodd" clip-rule="evenodd" d="M2568.34 1928.05H2179.31H2104.82L2179.31 1971.05V3299.29L2597.78 2416.07V2507.67L3000 2909.88L3402.22 2507.67V2416.07L3820.69 3299.29V1971.05L3895.19 1928.05H3820.69H3431.66L3000 2359.71L2568.34 1928.05Z" fill="#35383B"/>
<path d="M1728.8 3718.2V3999H1660.4V3830.6L1597.6 3999H1542.4L1479.2 3830.2V3999H1410.8V3718.2H1491.6L1570.4 3912.6L1648.4 3718.2H1728.8ZM1983.59 4002.2C1961.72 4002.2 1941.99 3997.53 1924.39 3988.2C1907.05 3978.87 1893.32 3965.53 1883.19 3948.2C1873.32 3930.87 1868.39 3910.6 1868.39 3887.4C1868.39 3864.47 1873.45 3844.33 1883.59 3827C1893.72 3809.4 1907.59 3795.93 1925.19 3786.6C1942.79 3777.27 1962.52 3772.6 1984.39 3772.6C2006.25 3772.6 2025.99 3777.27 2043.59 3786.6C2061.19 3795.93 2075.05 3809.4 2085.19 3827C2095.32 3844.33 2100.39 3864.47 2100.39 3887.4C2100.39 3910.33 2095.19 3930.6 2084.79 3948.2C2074.65 3965.53 2060.65 3978.87 2042.79 3988.2C2025.19 3997.53 2005.45 4002.2 1983.59 4002.2ZM1983.59 3943C1996.65 3943 2007.72 3938.2 2016.79 3928.6C2026.12 3919 2030.79 3905.27 2030.79 3887.4C2030.79 3869.53 2026.25 3855.8 2017.19 3846.2C2008.39 3836.6 1997.45 3831.8 1984.39 3831.8C1971.05 3831.8 1959.99 3836.6 1951.19 3846.2C1942.39 3855.53 1937.99 3869.27 1937.99 3887.4C1937.99 3905.27 1942.25 3919 1950.79 3928.6C1959.59 3938.2 1970.52 3943 1983.59 3943ZM2341.08 3935L2389.48 3775.8H2462.28L2383.08 3999H2298.68L2219.48 3775.8H2292.68L2341.08 3935ZM2629.47 3752.6C2617.47 3752.6 2607.6 3749.13 2599.87 3742.2C2592.4 3735 2588.67 3726.2 2588.67 3715.8C2588.67 3705.13 2592.4 3696.33 2599.87 3689.4C2607.6 3682.2 2617.47 3678.6 2629.47 3678.6C2641.2 3678.6 2650.8 3682.2 2658.27 3689.4C2666 3696.33 2669.87 3705.13 2669.87 3715.8C2669.87 3726.2 2666 3735 2658.27 3742.2C2650.8 3749.13 2641.2 3752.6 2629.47 3752.6ZM2663.47 3775.8V3999H2595.07V3775.8H2663.47ZM3027.43 3883.8C3027.43 3890.2 3027.03 3896.87 3026.23 3903.8H2871.43C2872.5 3917.67 2876.9 3928.33 2884.63 3935.8C2892.63 3943 2902.37 3946.6 2913.83 3946.6C2930.9 3946.6 2942.77 3939.4 2949.43 3925H3022.23C3018.5 3939.67 3011.7 3952.87 3001.83 3964.6C2992.23 3976.33 2980.1 3985.53 2965.43 3992.2C2950.77 3998.87 2934.37 4002.2 2916.23 4002.2C2894.37 4002.2 2874.9 3997.53 2857.83 3988.2C2840.77 3978.87 2827.43 3965.53 2817.83 3948.2C2808.23 3930.87 2803.43 3910.6 2803.43 3887.4C2803.43 3864.2 2808.1 3843.93 2817.43 3826.6C2827.03 3809.27 2840.37 3795.93 2857.43 3786.6C2874.5 3777.27 2894.1 3772.6 2916.23 3772.6C2937.83 3772.6 2957.03 3777.13 2973.83 3786.2C2990.63 3795.27 3003.7 3808.2 3013.03 3825C3022.63 3841.8 3027.43 3861.4 3027.43 3883.8ZM2957.43 3865.8C2957.43 3854.07 2953.43 3844.73 2945.43 3837.8C2937.43 3830.87 2927.43 3827.4 2915.43 3827.4C2903.97 3827.4 2894.23 3830.73 2886.23 3837.4C2878.5 3844.07 2873.7 3853.53 2871.83 3865.8H2957.43ZM3155.92 3858.2C3155.92 3830.47 3161.92 3805.8 3173.92 3784.2C3185.92 3762.33 3202.59 3745.4 3223.92 3733.4C3245.52 3721.13 3269.92 3715 3297.12 3715C3330.45 3715 3358.99 3723.8 3382.72 3741.4C3406.45 3759 3422.32 3783 3430.32 3813.4H3355.12C3349.52 3801.67 3341.52 3792.73 3331.12 3786.6C3320.99 3780.47 3309.39 3777.4 3296.32 3777.4C3275.25 3777.4 3258.19 3784.73 3245.12 3799.4C3232.05 3814.07 3225.52 3833.67 3225.52 3858.2C3225.52 3882.73 3232.05 3902.33 3245.12 3917C3258.19 3931.67 3275.25 3939 3296.32 3939C3309.39 3939 3320.99 3935.93 3331.12 3929.8C3341.52 3923.67 3349.52 3914.73 3355.12 3903H3430.32C3422.32 3933.4 3406.45 3957.4 3382.72 3975C3358.99 3992.33 3330.45 4001 3297.12 4001C3269.92 4001 3245.52 3995 3223.92 3983C3202.59 3970.73 3185.92 3953.8 3173.92 3932.2C3161.92 3910.6 3155.92 3885.93 3155.92 3858.2ZM3644.61 3813C3652.61 3800.73 3662.61 3791.13 3674.61 3784.2C3686.61 3777 3699.94 3773.4 3714.61 3773.4V3845.8H3695.81C3678.74 3845.8 3665.94 3849.53 3657.41 3857C3648.87 3864.2 3644.61 3877 3644.61 3895.4V3999H3576.21V3775.8H3644.61V3813ZM3837.7 3887C3837.7 3864.07 3841.97 3843.93 3850.5 3826.6C3859.3 3809.27 3871.17 3795.93 3886.1 3786.6C3901.03 3777.27 3917.7 3772.6 3936.1 3772.6C3951.83 3772.6 3965.57 3775.8 3977.3 3782.2C3989.3 3788.6 3998.5 3797 4004.9 3807.4V3775.8H4073.3V3999H4004.9V3967.4C3998.23 3977.8 3988.9 3986.2 3976.9 3992.6C3965.17 3999 3951.43 4002.2 3935.7 4002.2C3917.57 4002.2 3901.03 3997.53 3886.1 3988.2C3871.17 3978.6 3859.3 3965.13 3850.5 3947.8C3841.97 3930.2 3837.7 3909.93 3837.7 3887ZM4004.9 3887.4C4004.9 3870.33 4000.1 3856.87 3990.5 3847C3981.17 3837.13 3969.7 3832.2 3956.1 3832.2C3942.5 3832.2 3930.9 3837.13 3921.3 3847C3911.97 3856.6 3907.3 3869.93 3907.3 3887C3907.3 3904.07 3911.97 3917.67 3921.3 3927.8C3930.9 3937.67 3942.5 3942.6 3956.1 3942.6C3969.7 3942.6 3981.17 3937.67 3990.5 3927.8C4000.1 3917.93 4004.9 3904.47 4004.9 3887.4ZM4338.78 3832.6H4301.98V3999H4233.58V3832.6H4208.78V3775.8H4233.58V3769.4C4233.58 3741.93 4241.45 3721.13 4257.18 3707C4272.92 3692.6 4295.98 3685.4 4326.38 3685.4C4331.45 3685.4 4335.18 3685.53 4337.58 3685.8V3743.8C4324.52 3743 4315.32 3744.87 4309.98 3749.4C4304.65 3753.93 4301.98 3762.07 4301.98 3773.8V3775.8H4338.78V3832.6ZM4599.33 3941V3999H4564.53C4539.73 3999 4520.39 3993 4506.53 3981C4492.66 3968.73 4485.73 3948.87 4485.73 3921.4V3832.6H4458.53V3775.8H4485.73V3721.4H4554.13V3775.8H4598.93V3832.6H4554.13V3922.2C4554.13 3928.87 4555.73 3933.67 4558.93 3936.6C4562.13 3939.53 4567.46 3941 4574.93 3941H4599.33Z" fill="black"/>
</g>
<defs>
<clipPath id="clip0_2_2">
<rect width="6000" height="6000" fill="white"/>
</clipPath>
</defs>
</svg>
